{"title":"The.Whistleblower.2010.720p.BRRip.x264.Feel-Free","uid":6630981,"size":2831259953,"categoryP":"video","categoryS":"hd___movies","magnet":"?xt=urn:btih:78cfc30ca0781c63c985ad2be23930a4464656eb&amp;dn=The.Whistleblower.2010.720p.BRRip.x264.Feel-Free&amp;tr=udp%3A%2F%2Ftracker.openbittorrent.com%3A80&amp;tr=udp%3A%2F%2Fopen.demonii.com%3A1337&amp;tr=udp%3A%2F%2Ftracker.coppersurfer.tk%3A6969&amp;tr=udp%3A%2F%2Fexodus.desync.com%3A6969","seeders":0,"leechers":1,"uploader":"SnowCrash03","files":-1,"time":1314367607,"description":"Genre: Drama\n Language: English\n IMDb: http://www.imdb.com/title/tt0896872/\n Source: 720p.BluRay Thanks!\n-\n\nFormat : MPEG-4\n Format profile : Base Media\n Codec ID : isom\n File size : 2.63 GiB\n Duration : 1h 51mn\n Overall bit rate : 3 371 Kbps\n-\n\nVideo\n ID : 1\n Format : AVC\n Format/Info : Advanced Video Codec\n Format profile : &lt;a class=&quot;__cf_email__&quot; href=&quot;/cdn-cgi/l/email-protection&quot; data-cfemail=&quot;c58daca2ad8589f1ebf4&quot;&gt;[email&amp;#160;protected]&lt;/a&gt;&lt;script cf-hash='f9e31' type=&quot;text/javascript&quot;&gt;\n/* &lt;![CDATA[ */!function(){try{var t=&quot;currentScript&quot;in document?document.currentScript:function(){for(var t=document.getElementsByTagName(&quot;script&quot;),e=t.length;e--;)if(t[e].getAttribute(&quot;cf-hash&quot;))return t[e]}();if(t&amp;&amp;t.previousSibling){var e,r,n,i,c=t.previousSibling,a=c.getAttribute(&quot;data-cfemail&quot;);if(a){for(e=&quot;&quot;,r=parseInt(a.substr(0,2),16),n=2;a.length-n;n+=2)i=parseInt(a.substr(n,2),16)^r,e+=String.fromCharCode(i);e=document.createTextNode(e),c.parentNode.replaceChild(e,c)}}}catch(u){}}();/* ]]&gt; */&lt;/script&gt;\n Format settings, CABAC : Yes\n Format settings, ReFrames : 3 frames\n Codec ID : avc1\n Codec ID/Info : Advanced Video Coding\n Duration : 1h 51mn\n Bit rate mode : Variable\n Bit rate : 3 000 Kbps\n Maximum bit rate : 15.5 Mbps\n Width : 1 280 pixels\n Height : 720 pixels\n Display aspect ratio : 16:9\n Frame rate mode : Constant\n Frame rate : 23.976 fps\n Color space : YUV\n Chroma subsampling : 4:2:0\n Bit depth : 8 bits\n Scan type : Progressive\n Bits/(Pixel*Frame) : 0.136\n Stream size : 2.28 GiB (87%)\n Writing library : x264\n \nAudio\n ID : 2\n Format : AAC\n Format/Info : Advanced Audio Codec\n Format version : Version 4\n Format profile : LC\n Format settings, SBR : No\n Codec ID : 40\n Duration : 1h 51mn\n Bit rate mode : Variable\n Bit rate : 445 Kbps\n Maximum bit rate : 552 Kbps\n Channel(s) : 6 channels\n Channel positions : Front: L C R, Side: L R, LFE\n Sampling rate : 48.0 KHz\n Stream size : 356 MiB (13%)\n-\n\nPlot:\n A drama based on the experiences of Kathryn Bolkovac, a Nebraska cop who served as a peacekeeper in post-war Bosnia and outed the U.N. for covering up a sex scandal.\n \n","torrent":{"xt":"urn:btih:78cfc30ca0781c63c985ad2be23930a4464656eb","amp;dn":"The.Whistleblower.2010.720p.BRRip.x264.Feel-Free","amp;tr":["udp%3A%2F%2Ftracker.openbittorrent.com%3A80","udp%3A%2F%2Fopen.demonii.com%3A1337","udp%3A%2F%2Ftracker.coppersurfer.tk%3A6969","udp%3A%2F%2Fexodus.desync.com%3A6969"],"infoHash":"78cfc30ca0781c63c985ad2be23930a4464656eb","infoHashBuffer":{"type":"Buffer","data":[120,207,195,12,160,120,28,99,201,133,173,43,226,57,48,164,70,70,86,235]},"announce":[],"urlList":[]}}